<svg viewBox="0 0 72 72" fill="none" xmlns="http://www.w3.org/2000/svg">
    <path fill-rule="evenodd" clip-rule="evenodd"
          d="M36.106 4V4C41.7513 4 46.3242 5.46282 49.9608 7.92121C53.5832 10.3701 56.1688 13.7329 57.9757 17.38C61.4697 24.4321 62.1563 32.747 61.739 38.4306C63.5835 38.7992 65.2252 39.5436 66.2912 41.1813C67.4947 43.0303 67.3601 45.0894 66.7852 47.1693C66.2294 49.1802 65.1285 51.6669 63.7838 54.7043L60.8923 61.2359C60.288 62.6011 59.7717 63.7676 59.2427 64.6843C58.6777 65.6633 58.0135 66.5146 57.0338 67.1524C56.054 67.7901 55.0067 68.0528 53.8827 68.1732C52.8305 68.2858 51.5551 68.2858 50.0621 68.2857H22.1502C20.6573 68.2858 19.3816 68.2858 18.3293 68.1732C17.2054 68.0528 16.158 67.7901 15.1783 67.1524C14.1985 66.5146 13.5343 65.6633 12.9693 64.6843C12.4403 63.7676 11.9241 62.6013 11.3197 61.2361L8.42831 54.7045C7.08357 51.667 5.98263 49.1803 5.42681 47.1693C4.85195 45.0894 4.71732 43.0303 5.92084 41.1813C6.98682 39.5436 8.6285 38.7992 10.473 38.4306C10.0557 32.747 10.7424 24.4321 14.2364 17.38C16.0433 13.7329 18.6288 10.3701 22.2513 7.92121C25.8879 5.46282 30.4608 4 36.106 4ZM17.8206 19.1557C14.7542 25.3449 14.0869 32.8428 14.4558 38.048C15.8898 37.9999 17.5079 38 19.3016 38L21.3589 38V29.4726L21.2637 29.5502C20.4076 30.2481 19.1477 30.1198 18.4498 29.2637C17.7519 28.4076 17.8802 27.1477 18.7363 26.4498L34.6541 13.4736C34.7884 13.3596 34.9351 13.2657 35.0898 13.1925C35.6365 12.9327 36.2683 12.9388 36.8041 13.1924C36.9589 13.2657 37.1056 13.3596 37.24 13.4737L53.1577 26.4498C54.0139 27.1477 54.1421 28.4076 53.4442 29.2637C52.7463 30.1198 51.4865 30.2481 50.6303 29.5502L50.5351 29.4726V38L52.9104 38C54.7041 38 56.3222 37.9999 57.7562 38.048C58.1251 32.8428 57.4578 25.3449 54.3915 19.1557C52.8217 15.9873 50.6513 13.2162 47.7206 11.235C44.804 9.26338 41.0264 8 36.106 8V8C31.1856 8 27.4081 9.26338 24.4915 11.235C21.5608 13.2162 19.3904 15.9873 17.8206 19.1557ZM46.5351 26.2118L35.947 17.5803L25.3589 26.2118V38H46.5351V26.2118ZM21.5899 42V51.1428H34.106V42H21.5899ZM38.106 42V51.1428H50.6221V42H38.106ZM34.106 55.1428H21.5899V64.2853C21.7996 64.2857 22.0198 64.2857 22.2516 64.2857H34.106V55.1428ZM38.106 64.2857V55.1428H50.6221V64.2853C50.4124 64.2857 50.1922 64.2857 49.9605 64.2857H38.106ZM54.6221 55.1428V63.9265C54.7088 63.8867 54.7836 63.8443 54.8517 63.8C55.1156 63.6282 55.3929 63.3526 55.7782 62.6849C56.1876 61.9756 56.6191 61.0075 57.2757 59.5241L59.2153 55.1428H54.6221ZM54.6221 42.0022V51.1428H60.9817C61.9138 49.0073 62.5711 47.4013 62.9298 46.1037C63.3874 44.4478 63.2144 43.7868 62.9388 43.3634C62.6632 42.94 62.1289 42.5143 60.4294 42.2624C59.0206 42.0537 57.1608 42.0109 54.6221 42.0022ZM17.5899 51.1428V42.0022C15.0513 42.0109 13.1914 42.0537 11.7826 42.2624C10.0831 42.5143 9.5488 42.94 9.27321 43.3634C8.99761 43.7868 8.82458 44.4478 9.28226 46.1037C9.6409 47.4013 10.2983 49.0073 11.2304 51.1428H17.5899ZM17.5899 55.1428V63.9265C17.5033 63.8867 17.4285 63.8443 17.3604 63.8C17.0964 63.6282 16.8191 63.3526 16.4338 62.6849C16.0244 61.9756 15.593 61.0075 14.9363 59.5241L12.9968 55.1428H17.5899Z"
          fill="black"/>
</svg>
