<svg width="20" height="20" viewBox="0 0 20 20" fill="none" xmlns="http://www.w3.org/2000/svg">
<path fill-rule="evenodd" clip-rule="evenodd" d="M8.70697 2.33333C9.00465 2.11696 9.36671 2 9.73881 2C10.1109 2 10.473 2.11696 10.7707 2.33333L16.7897 6.70833C17.0033 6.86358 17.1767 7.06488 17.2961 7.29631C17.4155 7.52774 17.4776 7.78292 17.4776 8.04167V15.9583C17.4776 16.4004 17.2964 16.8243 16.9739 17.1368C16.6514 17.4494 16.214 17.625 15.7579 17.625H3.71974C3.26363 17.625 2.82621 17.4494 2.5037 17.1368C2.18119 16.8243 2 16.4004 2 15.9583V8.04167C2 7.78292 2.06216 7.52774 2.18156 7.29631C2.30095 7.06488 2.47431 6.86358 2.68789 6.70833L8.70697 2.33333ZM9.73881 3.66667L3.71974 8.04167V15.9583H15.7579V8.04167L9.73881 3.66667Z" fill="white"/>
</svg>
