<svg width="28" height="28" viewBox="0 0 28 28" fill="none" xmlns="http://www.w3.org/2000/svg">
<path d="M19.4688 3.71875C17.1719 3.71875 15.1747 4.75453 14 6.49031C12.8253 4.75453 10.8281 3.71875 8.53125 3.71875C6.79139 3.72078 5.12337 4.41283 3.8931 5.6431C2.66283 6.87337 1.97078 8.54139 1.96875 10.2813C1.96875 13.475 3.95937 16.7989 7.88594 20.1589C9.68521 21.6921 11.6288 23.0474 13.6894 24.2058C13.7849 24.2571 13.8916 24.284 14 24.284C14.1084 24.284 14.2151 24.2571 14.3106 24.2058C16.3712 23.0474 18.3148 21.6921 20.1141 20.1589C24.0406 16.7989 26.0312 13.475 26.0312 10.2813C26.0292 8.54139 25.3372 6.87337 24.1069 5.6431C22.8766 4.41283 21.2086 3.72078 19.4688 3.71875ZM14 22.8714C12.2052 21.8356 3.28125 16.3756 3.28125 10.2813C3.2827 8.88931 3.83629 7.55479 4.82054 6.57054C5.80479 5.58629 7.13931 5.0327 8.53125 5.03125C10.7494 5.03125 12.612 6.21578 13.393 8.12328C13.4424 8.24364 13.5265 8.34659 13.6346 8.41904C13.7427 8.4915 13.8699 8.53018 14 8.53018C14.1301 8.53018 14.2573 8.4915 14.3654 8.41904C14.4735 8.34659 14.5576 8.24364 14.607 8.12328C15.388 6.21578 17.2506 5.03125 19.4688 5.03125C20.8607 5.0327 22.1952 5.58629 23.1795 6.57054C24.1637 7.55479 24.7173 8.88931 24.7188 10.2813C24.7187 16.3756 15.7948 21.8356 14 22.8714Z" fill="#FF8585"/>
</svg>
